<?xml version="1.0" encoding="iso-8859-1"?>
<!-- Uploaded to: SVG Repo, www.svgrepo.com, Generator: SVG Repo Mixer Tools -->
<svg height="800px" width="800px" version="1.1" id="Layer_1" xmlns="http://www.w3.org/2000/svg" xmlns:xlink="http://www.w3.org/1999/xlink" 
	 viewBox="0 0 512.001 512.001" xml:space="preserve">
<path style="fill:#C9D2D9;" d="M294.925,19.988c-15.166,0-28.872,5.911-39.335,15.346c-10.463-9.435-24.169-15.346-39.335-15.346
	c-32.536,0-59.003,26.468-59.003,59.003s26.468,59.003,59.003,59.003c15.166,0,28.872-5.911,39.335-15.346
	c10.463,9.435,24.169,15.346,39.335,15.346c32.536,0,59.003-26.468,59.003-59.003S327.46,19.988,294.925,19.988z M216.254,98.659
	c-10.845,0-19.668-8.823-19.668-19.668s8.823-19.668,19.668-19.668c10.845,0,19.668,8.823,19.668,19.668
	S227.099,98.659,216.254,98.659z M294.925,98.659c-10.845,0-19.668-8.823-19.668-19.668s8.823-19.668,19.668-19.668
	c10.845,0,19.668,8.823,19.668,19.668S305.77,98.659,294.925,98.659z"/>
<path style="fill:#B7C4CC;" d="M294.925,137.994c32.536,0,59.003-26.468,59.003-59.003s-26.468-59.003-59.003-59.003
	c-15.166,0-28.872,5.911-39.335,15.346v87.314C266.053,132.083,279.757,137.994,294.925,137.994z M294.925,59.323
	c10.845,0,19.668,8.823,19.668,19.668s-8.823,19.668-19.668,19.668c-10.845,0-19.668-8.823-19.668-19.668
	S284.079,59.323,294.925,59.323z"/>
<path style="fill:#736056;" d="M504.79,310.798l-64.163-192.471H71.373L7.22,310.798c-14.175,42.491-7.273,87.698,18.913,124.038
	s66.891,57.178,111.694,57.178h236.359c44.79,0,85.496-20.84,111.681-57.173S518.952,353.296,504.79,310.798z"/>
<path style="fill:#665247;" d="M504.79,310.798l-64.163-192.471H255.589v373.687h118.595c44.79,0,85.496-20.84,111.681-57.173
	C512.051,398.508,518.952,353.296,504.79,310.798z"/>
<path style="fill:#B37548;" d="M361.163,118.326H150.835l-32.574,195.461c-9.77,58.606,2.74,122.373,30.436,155.063
	c16.21,19.143,33.381,23.163,44.932,23.163h124.742c11.55,0,28.72-4.02,44.932-23.163c27.696-32.69,40.206-96.456,30.437-155.063
	L361.163,118.326z"/>
<path style="fill:#A6673A;" d="M361.163,118.326H255.589v373.687h62.781c11.55,0,28.72-4.02,44.932-23.163
	c27.696-32.69,40.206-96.456,30.437-155.063L361.163,118.326z"/>
<path style="fill:#D7EBFF;" d="M427.516,98.659H84.485c-10.862,0-19.668,8.806-19.668,19.668v19.668h382.367v-19.668
	C447.183,107.463,438.379,98.659,427.516,98.659z"/>
<path style="fill:#C4E2FF;" d="M427.516,98.659H255.589v39.336h191.595v-19.668C447.183,107.463,438.379,98.659,427.516,98.659z"/>
</svg>