<?xml version="1.0" encoding="UTF-8"?>
<svg version="1.1" xmlns="http://www.w3.org/2000/svg" width="600" height="600">
<path d="M0 0 C198 0 396 0 600 0 C600 198 600 396 600 600 C402 600 204 600 0 600 C0 402 0 204 0 0 Z " fill="#FEFEFE" transform="translate(0,0)"/>
<path d="M0 0 C0.33 0 0.66 0 1 0 C1.05945801 0.58040039 1.11891602 1.16080078 1.18017578 1.75878906 C6.69851592 53.93403454 25.30726439 101.20563999 66.78125 135.1640625 C84.90736044 149.4474558 105.85741565 160.51719013 128 167 C128.7115625 167.21398437 129.423125 167.42796875 130.15625 167.6484375 C145.19609204 172.08727977 160.4170509 173.64400649 176 175 C173.48625476 177.51374524 172.34736795 177.36769876 168.85546875 177.67578125 C167.79642334 177.77866455 166.73737793 177.88154785 165.64624023 177.98754883 C164.50485596 178.09478271 163.36347168 178.2020166 162.1875 178.3125 C119.60854845 182.79989415 82.03888647 200.19088567 52 231 C51.36964844 231.58523438 50.73929688 232.17046875 50.08984375 232.7734375 C30.44038561 251.4178969 16.43267387 278.19287215 9 304 C8.64292969 305.22460938 8.28585937 306.44921875 7.91796875 307.7109375 C4.86441972 318.98733955 3.40625951 330.41957909 2 342 C1.80660287 343.55215987 1.61265056 345.10425074 1.41796875 346.65625 C1.28003906 347.7596875 1.14210938 348.863125 1 350 C-0.91158377 346.71119024 -1.4172773 343.8740932 -1.82421875 340.109375 C-2.03075073 338.35016724 -2.03075073 338.35016724 -2.24145508 336.55541992 C-2.3886499 335.29963135 -2.53584473 334.04384277 -2.6875 332.75 C-5.18922199 313.23802651 -10.20104979 294.64938364 -19 277 C-19.47373047 276.04407959 -19.47373047 276.04407959 -19.95703125 275.06884766 C-42.03731559 231.02923671 -79.74414116 200.9261388 -126 185 C-142.001174 180.01202341 -159.31789043 178.00161734 -176 177 C-176 176.34 -176 175.68 -176 175 C-174.93809448 174.90295776 -174.93809448 174.90295776 -173.85473633 174.80395508 C-158.20827802 173.33168919 -143.13961816 171.25967765 -128 167 C-126.7625 166.66613281 -125.525 166.33226562 -124.25 165.98828125 C-101.27827183 159.09163518 -80.01204946 146.69470977 -62 131 C-61.03578125 130.16984375 -60.0715625 129.3396875 -59.078125 128.484375 C-20.77351297 94.88296383 -6.34807617 49.08146698 0 0 Z " fill="#748AE7" transform="translate(332,100)"/>
<path d="M0 0 C0.33 0 0.66 0 1 0 C1.14695312 1.19753906 1.29390625 2.39507812 1.4453125 3.62890625 C4.43129756 26.01917191 13.16647326 44.1515743 30.5625 59.125 C43.93730169 69.32122228 58.63504432 73.37446973 75 76 C75 76.33 75 76.66 75 77 C73.87464844 77.14695312 72.74929688 77.29390625 71.58984375 77.4453125 C49.75297157 80.53649677 30.41017782 89.29765449 16.75 107.3125 C7.19101952 121.14989513 2.71644295 135.46794421 1 152 C-1.29395622 148.25157792 -1.68656254 144.26305263 -2.3125 140 C-4.96989432 123.69633908 -12.49325686 110.71876018 -24 99 C-25.01513672 97.948125 -25.01513672 97.948125 -26.05078125 96.875 C-39.09137139 84.30102231 -56.41576937 79.18723654 -74 77 C-74 76.67 -74 76.34 -74 76 C-73.12601562 75.83564453 -73.12601562 75.83564453 -72.234375 75.66796875 C-50.10800774 71.38881282 -30.04089684 63.66976393 -16 45 C-13.0080429 40.50275604 -10.46088089 35.80404311 -8 31 C-7.38318359 29.82244141 -7.38318359 29.82244141 -6.75390625 28.62109375 C-2.67915156 19.75810592 -1.63863309 9.54464255 0 0 Z " fill="#5EA0EB" transform="translate(185,348)"/>
<path d="M0 0 C0.33 0 0.66 0 1 0 C1.05945801 0.58040039 1.11891602 1.16080078 1.18017578 1.75878906 C6.51606834 52.20901445 23.30828284 93.58575075 60 129 C57 129 57 129 55.52954102 127.87011719 C55.02608154 127.35094727 54.52262207 126.83177734 54.00390625 126.296875 C53.44509766 125.72839844 52.88628906 125.15992188 52.31054688 124.57421875 C51.73369141 123.97222656 51.15683594 123.37023437 50.5625 122.75 C49.98951172 122.16347656 49.41652344 121.57695312 48.82617188 120.97265625 C47.71271662 119.83229356 46.60201935 118.68923004 45.49438477 117.54321289 C43.19078474 115.16434412 40.87470096 112.80472488 38.4375 110.5625 C36.59971997 108.56491301 35.37596042 106.33315028 34 104 C33.34 103.34 32.68 102.68 32 102 C30.67271852 99.78499129 29.3858472 97.56468244 28.125 95.3125 C27.61646484 94.41241211 27.61646484 94.41241211 27.09765625 93.49414062 C26.40939455 92.27594358 25.72255843 91.05694007 25.03710938 89.8371582 C24.00598505 88.01060206 22.96099278 86.19253232 21.9140625 84.375 C20.28767758 81.50725189 18.73320794 78.63102687 17.25 75.6875 C16.82203125 74.84574219 16.3940625 74.00398438 15.953125 73.13671875 C15 71 15 71 15 69 C14.01 68.67 13.02 68.34 12 68 C11.80857422 66.90945312 11.80857422 66.90945312 11.61328125 65.796875 C11.0257919 63.11762423 10.20372139 60.79257781 9.1875 58.25 C5.72493822 48.9577433 3.89849964 39.1728576 1.8125 29.5 C1.37014815 26.19385052 1.37014815 26.19385052 0 25 C-0.62811483 27.4575755 -1.25303673 29.91586553 -1.875 32.375 C-2.15561279 33.47992798 -2.15561279 33.47992798 -2.44189453 34.60717773 C-3.39690958 38.41428715 -4.24321028 42.18620682 -4.875 46.0625 C-5.95473283 51.77929974 -8.25781581 57.04536447 -10.4921875 62.38671875 C-11.72637382 65.34428959 -12.87563236 68.31261154 -14 71.3125 C-15.72693779 75.63698058 -17.96576176 79.48226191 -20.4296875 83.42578125 C-22.06602838 86.10824056 -23.53547065 88.84546131 -25 91.625 C-27.25528318 95.81591993 -29.75722989 99.55566678 -32.6953125 103.29296875 C-34.13464367 105.10208183 -34.13464367 105.10208183 -35.5625 107.6875 C-37.35248089 110.56703447 -39.59218561 112.60928657 -42 115 C-44.28403207 117.50013408 -46.55591358 120.00900128 -48.80664062 122.5390625 C-51.97760391 126.04736231 -55.3329667 129.01391511 -59 132 C-60.00480761 132.99516917 -61.00568168 133.99435042 -62 135 C-67.84756693 139.90401049 -74.10335525 144.14509301 -80.49609375 148.30078125 C-83.03344402 149.90808748 -83.03344402 149.90808748 -85 152 C-85.86625 152.2475 -86.7325 152.495 -87.625 152.75 C-91.42921303 154.15896779 -93.94842839 156.12784108 -97.11328125 158.60546875 C-99.82515805 160.60989943 -102.50645783 161.66444647 -105.7734375 162.3984375 C-108.57416121 163.15512426 -111.18384113 164.22865422 -113.875 165.3125 C-120.80995144 168.00425408 -127.80742068 170.11527037 -135 172 C-136.14082031 172.30164063 -137.28164062 172.60328125 -138.45703125 172.9140625 C-144.81436593 174.49784553 -150.45122271 175.33298868 -157 175 C-157 175.66 -157 176.32 -157 177 C-156.28972656 176.98839844 -155.57945312 176.97679687 -154.84765625 176.96484375 C-153.92855469 176.95582031 -153.00945312 176.94679688 -152.0625 176.9375 C-151.14597656 176.92589844 -150.22945312 176.91429687 -149.28515625 176.90234375 C-147 177 -147 177 -146 178 C-144.66369883 178.29430772 -143.31580778 178.53661833 -141.96484375 178.75390625 C-141.15595703 178.88603516 -140.34707031 179.01816406 -139.51367188 179.15429688 C-138.2384668 179.35635742 -138.2384668 179.35635742 -136.9375 179.5625 C-136.08349609 179.70107422 -135.22949219 179.83964844 -134.34960938 179.98242188 C-132.23365549 180.32523005 -130.11689882 180.66307616 -128 181 C-128 181.66 -128 182.32 -128 183 C-127.38511719 183.06058594 -126.77023438 183.12117187 -126.13671875 183.18359375 C-125.32847656 183.26738281 -124.52023438 183.35117187 -123.6875 183.4375 C-122.48673828 183.55931641 -122.48673828 183.55931641 -121.26171875 183.68359375 C-119 184 -119 184 -116 185 C-116 185.66 -116 186.32 -116 187 C-114.35 187 -112.7 187 -111 187 C-111 187.66 -111 188.32 -111 189 C-110.360625 189.0825 -109.72125 189.165 -109.0625 189.25 C-100.11162225 191.44205169 -92.01255997 196.59123439 -84 201 C-84 201.66 -84 202.32 -84 203 C-82.68 203.33 -81.36 203.66 -80 204 C-80 204.66 -80 205.32 -80 206 C-83.61438551 204.69690086 -86.81487728 202.9919701 -90.11279297 201.02978516 C-96.98213002 196.96116955 -103.95501301 193.57401392 -111.375 190.625 C-112.18203369 190.3038623 -112.98906738 189.98272461 -113.82055664 189.65185547 C-119.46544798 187.46677343 -125.18270831 185.66593075 -131 184 C-132.41732422 183.58234375 -132.41732422 183.58234375 -133.86328125 183.15625 C-147.50658182 179.50062879 -161.91597303 177.84562481 -176 177 C-176 176.34 -176 175.68 -176 175 C-174.93809448 174.90295776 -174.93809448 174.90295776 -173.85473633 174.80395508 C-158.20827802 173.33168919 -143.13961816 171.25967765 -128 167 C-126.7625 166.66613281 -125.525 166.33226562 -124.25 165.98828125 C-101.27827183 159.09163518 -80.01204946 146.69470977 -62 131 C-61.03578125 130.16984375 -60.0715625 129.3396875 -59.078125 128.484375 C-20.77351297 94.88296383 -6.34807617 49.08146698 0 0 Z " fill="#A167CD" transform="translate(332,100)"/>
<path d="M0 0 C3.30940917 1.26940235 6.41255656 2.68713314 9.51953125 4.390625 C36.64321778 19.07135574 63.25794606 25.47015658 94 28 C91.48625476 30.51374524 90.34736795 30.36769876 86.85546875 30.67578125 C85.79642334 30.77866455 84.73737793 30.88154785 83.64624023 30.98754883 C82.50485596 31.09478271 81.36347168 31.2020166 80.1875 31.3125 C37.60854845 35.79989415 0.03888647 53.19088567 -30 84 C-30.63035156 84.58523438 -31.26070313 85.17046875 -31.91015625 85.7734375 C-51.55961439 104.4178969 -65.56732613 131.19287215 -73 157 C-73.35707031 158.22460938 -73.71414063 159.44921875 -74.08203125 160.7109375 C-77.13558028 171.98733955 -78.59374049 183.41957909 -80 195 C-80.19339713 196.55215987 -80.38734944 198.10425074 -80.58203125 199.65625 C-80.71996094 200.7596875 -80.85789062 201.863125 -81 203 C-82.91158377 199.71119024 -83.4172773 196.8740932 -83.82421875 193.109375 C-83.96190674 191.93656982 -84.09959473 190.76376465 -84.24145508 189.55541992 C-84.3886499 188.29963135 -84.53584473 187.04384277 -84.6875 185.75 C-88.49091767 156.08555879 -99.31300573 130.25368395 -115 105 C-114.01 105.33 -113.02 105.66 -112 106 C-112 106.66 -112 107.32 -112 108 C-111.34 108 -110.68 108 -110 108 C-109.73445313 108.56589844 -109.46890625 109.13179688 -109.1953125 109.71484375 C-108.66550781 110.81505859 -108.66550781 110.81505859 -108.125 111.9375 C-107.77695312 112.66839844 -107.42890625 113.39929688 -107.0703125 114.15234375 C-106.1315023 116.16332459 -106.1315023 116.16332459 -104 117 C-102.47615729 120.29150026 -101.14689643 123.55931072 -100 127 C-99.34 127.33 -98.68 127.66 -98 128 C-97.03515625 130.2578125 -97.03515625 130.2578125 -96.0625 133.125 C-94.92174074 136.40309258 -93.78023283 139.6382431 -92.375 142.8125 C-91.06375772 145.85219801 -89.99064218 148.84232805 -89 152 C-88.7628125 152.74121094 -88.525625 153.48242188 -88.28125 154.24609375 C-86.66892989 159.41357971 -85.40409211 164.54605801 -84.4296875 169.87109375 C-84.01019223 172.17323081 -84.01019223 172.17323081 -83 175 C-82.77820215 176.89212737 -82.59385985 178.78884472 -82.4375 180.6875 C-82.35371094 181.68136719 -82.26992188 182.67523438 -82.18359375 183.69921875 C-82.09271484 184.83810547 -82.09271484 184.83810547 -82 186 C-81.90912109 185.04287109 -81.90912109 185.04287109 -81.81640625 184.06640625 C-81.73261719 183.24011719 -81.64882813 182.41382813 -81.5625 181.5625 C-81.48128906 180.73878906 -81.40007812 179.91507813 -81.31640625 179.06640625 C-81 177 -81 177 -80 176 C-79.50624189 173.694804 -79.0556818 171.38030907 -78.625 169.0625 C-77.5908216 163.64433249 -76.36214118 158.40011006 -74.6484375 153.1484375 C-73.93558846 150.78658827 -73.45082426 148.42424368 -73 146 C-72.34 146 -71.68 146 -71 146 C-70.89558594 145.154375 -70.79117188 144.30875 -70.68359375 143.4375 C-69.9296127 139.64605244 -68.64305607 136.52436953 -67.0625 133 C-65.53417636 129.57535343 -64.07913446 126.2439979 -62.921875 122.67578125 C-61.82879145 119.50305992 -60.36122282 118.36122282 -58 116 C-56.20832105 113.0649134 -54.58943711 110.04859249 -53 107 C-52.34 107 -51.68 107 -51 107 C-50.67 105.02 -50.34 103.04 -50 101 C-49.01 101 -48.02 101 -47 101 C-46.9175 100.4225 -46.835 99.845 -46.75 99.25 C-45.79421474 96.38264421 -44.14915257 95.08199155 -42 93 C-41.505 91.515 -41.505 91.515 -41 90 C-39.01739574 88.31267723 -37.0167658 86.64633943 -35 85 C-34.01 83.515 -34.01 83.515 -33 82 C-32.0099366 81.07027288 -30.98512347 80.17685128 -29.9375 79.3125 C-26.97236351 76.82178535 -24.03395152 74.30635133 -21.125 71.75 C-20.36445313 71.08484375 -19.60390625 70.4196875 -18.8203125 69.734375 C-16.91758803 68.11772931 -16.91758803 68.11772931 -16 66 C-14.02111039 65.27306096 -12.02045442 64.60183749 -10 64 C-10 63.34 -10 62.68 -10 62 C-8.35666496 60.96210419 -6.68756133 59.96432076 -5 59 C-4.01 58.01 -4.01 58.01 -3 57 C-0.375 56.375 -0.375 56.375 2 56 C2 55.34 2 54.68 2 54 C7.40141068 50.05324898 16.07485647 44 23 44 C23 43.34 23 42.68 23 42 C24.10408203 41.70996094 24.10408203 41.70996094 25.23046875 41.4140625 C26.20628906 41.15367187 27.18210937 40.89328125 28.1875 40.625 C29.15042969 40.36976563 30.11335937 40.11453125 31.10546875 39.8515625 C34.54930618 38.83839575 37.78990737 37.60504632 41 36 C42.99960012 35.960008 45.00047242 35.95653201 47 36 C47 35.34 47 34.68 47 34 C52.59813429 32.73590516 58.19979682 31.54734061 63.8359375 30.46484375 C66.16531953 30.0059721 66.16531953 30.0059721 69 29 C62.76380419 26.08977529 55.85304563 24.82867386 49 25 C48.67 24.34 48.34 23.68 48 23 C45.56563805 22.22497994 45.56563805 22.22497994 42.625 21.625 C36.54920512 20.20440048 30.81195751 18.25384966 25 16 C25 15.34 25 14.68 25 14 C24.05125 13.855625 23.1025 13.71125 22.125 13.5625 C19 13 19 13 17 12 C17 11.34 17 10.68 17 10 C16.01 10.33 15.02 10.66 14 11 C14 10.34 14 9.68 14 9 C11.2633126 7.87312872 8.59790896 6.8840122 5.75 6.0625 C4.38875 5.5365625 4.38875 5.5365625 3 5 C2.505 3.515 2.505 3.515 2 2 C1.34 2 0.68 2 0 2 C0 1.34 0 0.68 0 0 Z " fill="#58BAE0" transform="translate(414,247)"/>
<path d="M0 0 C1.57692688 2.36539033 2.584921 4.31063075 3.6875 6.875 C6.39411402 12.36902249 10.46824078 14.86878844 15.9375 17.3125 C16.618125 17.539375 17.29875 17.76625 18 18 C15 20 15 20 13.1328125 21.0078125 C7.72274221 24.01808507 4.54448147 27.32470002 2 33 C1.13780226 36.30984583 1.13780226 36.30984583 1 39 C0.34 38.67 -0.32 38.34 -1 38 C-1.268125 36.783125 -1.53625 35.56625 -1.8125 34.3125 C-2.86599388 29.81705666 -4.61666702 27.23623155 -8 24 C-10.00182904 22.81141401 -12.00533087 21.8030828 -14.1328125 20.859375 C-16 20 -16 20 -19 18 C-17.80375 17.608125 -16.6075 17.21625 -15.375 16.8125 C-7.42605687 13.75629259 -4.38261577 9.55060315 -0.8828125 2.01171875 C-0.59148437 1.34785156 -0.30015625 0.68398438 0 0 Z " fill="#A55CDA" transform="translate(112,322)"/>
<path d="M0 0 C0.33 0 0.66 0 1 0 C1.14695312 1.19753906 1.29390625 2.39507812 1.4453125 3.62890625 C3.40626914 18.33304548 7.06972494 30.42608932 15.58203125 42.828125 C17 45 17 45 18 48 C15 47 15 47 14 45.125 C13.505 44.073125 13.505 44.073125 13 43 C12.52054932 42.53505127 12.04109863 42.07010254 11.54711914 41.59106445 C8.98482789 38.95599233 7.84677799 35.53036802 6.4375 32.1875 C6.13392578 31.48818359 5.83035156 30.78886719 5.51757812 30.06835938 C3.81320044 26.0989046 2.30126937 22.12392334 1 18 C-0.66401377 21.19826499 -2.02758861 24.46971824 -3.375 27.8125 C-5.29804762 32.46175041 -7.37581829 36.71383654 -10 41 C-10.44601563 41.78761719 -10.89203125 42.57523437 -11.3515625 43.38671875 C-17.96508714 53.87119265 -28.37802173 64.48034178 -40 69 C-40.66 69.66 -41.32 70.32 -42 71 C-47.08681637 73.54340818 -51.34373714 74.50383659 -57 75 C-57 75.99 -57 76.98 -57 78 C-55.4221875 78.185625 -55.4221875 78.185625 -53.8125 78.375 C-50.54041229 78.91140782 -47.99463924 79.63880035 -45 81 C-45 81.66 -45 82.32 -45 83 C-44.01 83 -43.02 83 -42 83 C-42 83.66 -42 84.32 -42 85 C-42.53367188 84.81824219 -43.06734375 84.63648438 -43.6171875 84.44921875 C-46.07412338 83.6203217 -48.53642243 82.80893592 -51 82 C-52.17175781 81.60554688 -52.17175781 81.60554688 -53.3671875 81.203125 C-60.14231483 79.02619884 -66.95553983 77.93852526 -74 77 C-74 76.67 -74 76.34 -74 76 C-73.12601562 75.83564453 -73.12601562 75.83564453 -72.234375 75.66796875 C-50.10800774 71.38881282 -30.04089684 63.66976393 -16 45 C-13.0080429 40.50275604 -10.46088089 35.80404311 -8 31 C-7.38318359 29.82244141 -7.38318359 29.82244141 -6.75390625 28.62109375 C-2.67915156 19.75810592 -1.63863309 9.54464255 0 0 Z " fill="#8190D6" transform="translate(185,348)"/>
<path d="M0 0 C0.99 0.33 1.98 0.66 3 1 C3 1.66 3 2.32 3 3 C3.66 3 4.32 3 5 3 C5.26554687 3.56589844 5.53109375 4.13179688 5.8046875 4.71484375 C6.15789062 5.44832031 6.51109375 6.18179687 6.875 6.9375 C7.22304688 7.66839844 7.57109375 8.39929688 7.9296875 9.15234375 C8.8684977 11.16332459 8.8684977 11.16332459 11 12 C12.52384271 15.29150026 13.85310357 18.55931072 15 22 C15.66 22.33 16.32 22.66 17 23 C17.96484375 25.2578125 17.96484375 25.2578125 18.9375 28.125 C20.07825926 31.40309258 21.21976717 34.6382431 22.625 37.8125 C23.93624228 40.85219801 25.00935782 43.84232805 26 47 C26.2371875 47.74121094 26.474375 48.48242188 26.71875 49.24609375 C28.33107011 54.41357971 29.59590789 59.54605801 30.5703125 64.87109375 C30.98980777 67.17323081 30.98980777 67.17323081 32 70 C32.22179785 71.89212737 32.40614015 73.78884472 32.5625 75.6875 C32.64628906 76.68136719 32.73007812 77.67523438 32.81640625 78.69921875 C32.87699219 79.45847656 32.93757813 80.21773438 33 81 C33.06058594 80.36191406 33.12117188 79.72382813 33.18359375 79.06640625 C33.26738281 78.24011719 33.35117187 77.41382813 33.4375 76.5625 C33.51871094 75.73878906 33.59992188 74.91507812 33.68359375 74.06640625 C34 72 34 72 35 71 C35.49375811 68.694804 35.9443182 66.38030907 36.375 64.0625 C37.4091784 58.64433249 38.63785882 53.40011006 40.3515625 48.1484375 C41.06441154 45.78658827 41.54917574 43.42424368 42 41 C42.33 41 42.66 41 43 41 C43.28462458 46.77710976 42.23919188 51.52011265 40.6875 57.0625 C37.79759708 67.93131451 36.31565915 78.84865451 35 90 C34.67011511 92.66710857 34.33486149 95.33351032 34 98 C32.08841623 94.71119024 31.5827227 91.8740932 31.17578125 88.109375 C31.03809326 86.93656982 30.90040527 85.76376465 30.75854492 84.55541992 C30.53775269 82.67173706 30.53775269 82.67173706 30.3125 80.75 C26.50908233 51.08555879 15.68699427 25.25368395 0 0 Z " fill="#46CAE7" transform="translate(299,352)"/>
<path d="M0 0 C0 0.66 0 1.32 0 2 C0.71027344 1.98839844 1.42054688 1.97679687 2.15234375 1.96484375 C3.07144531 1.95582031 3.99054688 1.94679688 4.9375 1.9375 C5.85402344 1.92589844 6.77054688 1.91429687 7.71484375 1.90234375 C10 2 10 2 11 3 C12.33630117 3.29430772 13.68419222 3.53661833 15.03515625 3.75390625 C16.24848633 3.95209961 16.24848633 3.95209961 17.48632812 4.15429688 C18.33646484 4.28900391 19.18660156 4.42371094 20.0625 4.5625 C20.91650391 4.70107422 21.77050781 4.83964844 22.65039062 4.98242188 C24.76634451 5.32523005 26.88310118 5.66307616 29 6 C29 6.66 29 7.32 29 8 C29.61488281 8.06058594 30.22976562 8.12117188 30.86328125 8.18359375 C31.67152344 8.26738281 32.47976562 8.35117187 33.3125 8.4375 C34.11300781 8.51871094 34.91351563 8.59992188 35.73828125 8.68359375 C38 9 38 9 41 10 C41 10.66 41 11.32 41 12 C42.65 12 44.3 12 46 12 C46 12.66 46 13.32 46 14 C46.639375 14.0825 47.27875 14.165 47.9375 14.25 C56.88837775 16.44205169 64.98744003 21.59123439 73 26 C73 26.66 73 27.32 73 28 C74.98 28.495 74.98 28.495 77 29 C77 29.66 77 30.32 77 31 C73.38561449 29.69690086 70.18512272 27.9919701 66.88720703 26.02978516 C60.01786998 21.96116955 53.04498699 18.57401392 45.625 15.625 C44.81796631 15.3038623 44.01093262 14.98272461 43.17944336 14.65185547 C37.53455202 12.46677343 31.81729169 10.66593075 26 9 C25.05511719 8.7215625 24.11023438 8.443125 23.13671875 8.15625 C9.49341818 4.50062879 -4.91597303 2.84562481 -19 2 C-19 1.34 -19 0.68 -19 0 C-12.41816638 -0.8931507 -6.57849492 -0.95494281 0 0 Z " fill="#AA6FC9" transform="translate(175,275)"/>
<path d="M0 0 C0.33 0 0.66 0 1 0 C1.19408447 1.0837793 1.19408447 1.0837793 1.39208984 2.18945312 C8.88991494 42.94158062 27.26739047 76.30256837 57 105 C54 105 54 105 52.52954102 103.87011719 C52.02608154 103.35094727 51.52262207 102.83177734 51.00390625 102.296875 C50.44509766 101.72839844 49.88628906 101.15992188 49.31054688 100.57421875 C48.73369141 99.97222656 48.15683594 99.37023437 47.5625 98.75 C46.98951172 98.16347656 46.41652344 97.57695312 45.82617188 96.97265625 C44.71271662 95.83229356 43.60201935 94.68923004 42.49438477 93.54321289 C40.19078474 91.16434412 37.87470096 88.80472488 35.4375 86.5625 C33.59971997 84.56491301 32.37596042 82.33315028 31 80 C30.34 79.34 29.68 78.68 29 78 C27.67271852 75.78499129 26.3858472 73.56468244 25.125 71.3125 C24.78597656 70.71244141 24.44695312 70.11238281 24.09765625 69.49414062 C23.40939455 68.27594358 22.72255843 67.05694007 22.03710938 65.8371582 C21.00598505 64.01060206 19.96099278 62.19253232 18.9140625 60.375 C17.28767758 57.50725189 15.73320794 54.63102687 14.25 51.6875 C13.82203125 50.84574219 13.3940625 50.00398438 12.953125 49.13671875 C12 47 12 47 12 45 C11.01 44.67 10.02 44.34 9 44 C8.80857422 42.90945312 8.80857422 42.90945312 8.61328125 41.796875 C8.0257919 39.11762423 7.20372139 36.79257781 6.1875 34.25 C2.12895656 23.24881997 -0.91719067 11.79609113 0 0 Z " fill="#A167C9" transform="translate(335,124)"/>
<path d="M0 0 C0.66 0.33 1.32 0.66 2 1 C1.03900391 2.05574219 1.03900391 2.05574219 0.05859375 3.1328125 C-12.92749208 17.95746488 -18.98068246 34.55078365 -21 54 C-23.29380549 50.25182422 -23.68736913 46.26302563 -24.3125 42 C-25.52991451 34.45653601 -27.63148441 27.89202423 -31 21 C-31.39960938 20.17113281 -31.79921875 19.34226562 -32.2109375 18.48828125 C-33.11707938 16.64707806 -34.0543601 14.82123241 -35 13 C-34.34 13 -33.68 13 -33 13 C-33 13.66 -33 14.32 -33 15 C-32.34 15 -31.68 15 -31 15 C-27.64028458 21.36577659 -24.07345419 28.27359724 -22.4765625 35.3046875 C-22.31929687 35.86414063 -22.16203125 36.42359375 -22 37 C-21.34 37.33 -20.68 37.66 -20 38 C-19.855625 36.948125 -19.71125 35.89625 -19.5625 34.8125 C-19.12473034 31.84539451 -18.62195134 28.93205634 -18 26 C-17.34 26 -16.68 26 -16 26 C-15.9175 25.175 -15.835 24.35 -15.75 23.5 C-14.40520163 17.22427428 -11.80419552 12.30720978 -7 8 C-6.67 7.34 -6.34 6.68 -6 6 C-5.34 6 -4.68 6 -4 6 C-3.566875 5.071875 -3.566875 5.071875 -3.125 4.125 C-2 2 -2 2 0 0 Z " fill="#5BB4DE" transform="translate(207,446)"/>
<path d="M0 0 C0.33 0 0.66 0 1 0 C3.29612756 18.82004556 3.29612756 18.82004556 3 28 C2.01 27.01 1.02 26.02 0 25 C-0.62811506 27.45757641 -1.25328489 29.91580176 -1.875 32.375 C-2.0591748 33.10291748 -2.24334961 33.83083496 -2.43310547 34.58081055 C-3.63544694 39.38857898 -4.68317422 44.19310432 -5.5078125 49.08203125 C-6 51 -6 51 -8 54 C-8.30335677 47.13757787 -7.14154604 41.00338778 -5.6875 34.3125 C-3.30176329 22.9254523 -1.49191402 11.53504257 0 0 Z " fill="#B254C4" transform="translate(332,100)"/>
<path d="M0 0 C5.266436 1.00114427 10.46375181 2.28318384 15.67382812 3.5390625 C19.76713966 4.51418027 23.83620988 5.36652321 28 6 C28 6.33 28 6.66 28 7 C26.87464844 7.14695312 25.74929688 7.29390625 24.58984375 7.4453125 C10.46006487 9.44815332 -1.73064944 13.48543841 -14 21 C-14 20.01 -14 19.02 -14 18 C-11.75 16.4375 -11.75 16.4375 -9 15 C-8.29875 14.608125 -7.5975 14.21625 -6.875 13.8125 C-5 13 -5 13 -2 13 C-1.67 12.01 -1.34 11.02 -1 10 C-0.278125 9.87625 0.44375 9.7525 1.1875 9.625 C3.99243124 9.09573821 3.99243124 9.09573821 6.4375 7.9375 C9.42308583 6.8452125 11.84529623 6.85326959 15 7 C15 6.34 15 5.68 15 5 C14.01 5.33 13.02 5.66 12 6 C9.6593935 5.72230092 7.32375692 5.39460023 5 5 C5 4.34 5 3.68 5 3 C3.35 2.34 1.7 1.68 0 1 C0 0.67 0 0.34 0 0 Z " fill="#5AB2DF" transform="translate(232,418)"/>
<path d="M0 0 C2.06264576 3.49063128 2.5445978 6.73894329 3.0703125 10.734375 C3.24433594 12.02988281 3.41835938 13.32539063 3.59765625 14.66015625 C3.77359263 16.02341749 3.9493719 17.38669901 4.125 18.75 C4.30793761 20.12899345 4.49152433 21.50790096 4.67578125 22.88671875 C5.12357683 26.25696973 5.56262373 29.62838102 6 33 C6.99 26.4 7.98 19.8 9 13 C9.33 13 9.66 13 10 13 C9.67 21.25 9.34 29.5 9 38 C7.02 38.495 7.02 38.495 5 39 C5 37.68 5 36.36 5 35 C4.34 35 3.68 35 3 35 C2.49382065 30.47983634 1.99615563 25.95877401 1.5 21.4375 C1.35691406 20.16068359 1.21382813 18.88386719 1.06640625 17.56835938 C0.93105469 16.32763672 0.79570312 15.08691406 0.65625 13.80859375 C0.53056641 12.67220459 0.40488281 11.53581543 0.27539062 10.36499023 C-0.0086196 6.8946773 -0.04642989 3.48030728 0 0 Z " fill="#CEF9FD" transform="translate(326,413)"/>
<path d="M0 0 C2.90995652 3.54142359 5.51528779 7.19108454 8.0625 11 C15.86870584 22.4261906 25.05991221 32.40598877 35 42 C32 42 32 42 30.52954102 40.87011719 C30.02608154 40.35094727 29.52262207 39.83177734 29.00390625 39.296875 C28.44509766 38.72839844 27.88628906 38.15992188 27.31054688 37.57421875 C26.73369141 36.97222656 26.15683594 36.37023437 25.5625 35.75 C24.98951172 35.16347656 24.41652344 34.57695312 23.82617188 33.97265625 C22.71271662 32.83229356 21.60201935 31.68923004 20.49438477 30.54321289 C18.19078474 28.16434412 15.87470096 25.80472488 13.4375 23.5625 C11.59971997 21.56491301 10.37596042 19.33315028 9 17 C8.34 16.34 7.68 15.68 7 15 C5.7556007 13.04330879 4.55198488 11.06046815 3.375 9.0625 C2.74335938 8.00160156 2.11171875 6.94070312 1.4609375 5.84765625 C0 3 0 3 0 0 Z " fill="#878BCE" transform="translate(357,187)"/>
<path d="M0 0 C0.33 0 0.66 0 1 0 C0.83442276 6.93919172 -0.68301813 12.18785968 -3.7421875 18.40234375 C-4.82928722 20.647441 -5.69758032 22.83096863 -6.5 25.1875 C-7.80198922 28.79187695 -9.63514066 31.83464706 -11.7265625 35.03515625 C-13.61650762 37.95123721 -15.29669257 40.9718979 -17 44 C-18 41 -18 41 -17.32250977 39.2644043 C-16.94924561 38.62414307 -16.57598145 37.98388184 -16.19140625 37.32421875 C-15.77745605 36.58856689 -15.36350586 35.85291504 -14.93701172 35.0949707 C-14.48342285 34.30050537 -14.02983398 33.50604004 -13.5625 32.6875 C-7.78769131 22.22001817 -3.79047211 11.31193903 0 0 Z " fill="#A85FC8" transform="translate(323,149)"/>
<path d="M0 0 C0.33 0 0.66 0 1 0 C1.28909867 5.8366677 0.2292195 10.7028568 -1.3125 16.3125 C-3.81446286 25.80203064 -5.5588397 35.29853067 -7 45 C-7.33 45 -7.66 45 -8 45 C-8.02685412 42.68756208 -8.04632841 40.3750373 -8.0625 38.0625 C-8.07410156 36.77472656 -8.08570313 35.48695313 -8.09765625 34.16015625 C-8 31 -8 31 -7 30 C-6.50624189 27.694804 -6.0556818 25.38030907 -5.625 23.0625 C-4.5908216 17.64433249 -3.36214118 12.40011006 -1.6484375 7.1484375 C-0.93558846 4.78658827 -0.45082426 2.42424368 0 0 Z " fill="#44CBE6" transform="translate(341,393)"/>
<path d="M0 0 C1.65 0 3.3 0 5 0 C5 0.66 5 1.32 5 2 C5.639375 2.0825 6.27875 2.165 6.9375 2.25 C15.88837775 4.44205169 23.98744003 9.59123439 32 14 C32 14.66 32 15.32 32 16 C33.32 16.33 34.64 16.66 36 17 C36 17.66 36 18.32 36 19 C31.57817992 17.4074671 27.6610464 15.11926141 23.625 12.75 C16.01947931 8.36226788 8.23289892 5.01636383 0 2 C0 1.34 0 0.68 0 0 Z " fill="#9D78D0" transform="translate(216,287)"/>
<path d="M0 0 C1.95582488 2.93373731 3.56224304 5.78216298 5 9 C4.67 9.66 4.34 10.32 4 11 C2.35 9.35 0.7 7.7 -1 6 C-1.226875 6.70125 -1.45375 7.4025 -1.6875 8.125 C-3.36558972 11.80081558 -5.16690522 14.09945058 -8 17 C-9.32 17 -10.64 17 -12 17 C-12 17.99 -12 18.98 -12 20 C-10.68 20.33 -9.36 20.66 -8 21 C-8 21.99 -8 22.98 -8 24 C-9.27208622 23.37755401 -10.54261882 22.75193233 -11.8125 22.125 C-12.52019531 21.77695312 -13.22789063 21.42890625 -13.95703125 21.0703125 C-16 20 -16 20 -19 18 C-17.80375 17.608125 -16.6075 17.21625 -15.375 16.8125 C-7.42605687 13.75629259 -4.38261577 9.55060315 -0.8828125 2.01171875 C-0.59148437 1.34785156 -0.30015625 0.68398438 0 0 Z " fill="#A265C4" transform="translate(112,322)"/>
<path d="M0 0 C3.37329036 1.29491908 6.54919716 2.74976704 9.73046875 4.4609375 C10.61669922 4.93273437 11.50292969 5.40453125 12.41601562 5.890625 C14.24524397 6.87033856 16.07339381 7.8520688 17.90039062 8.8359375 C23.80097245 11.97155354 29.74243406 14.65520898 36 17 C31.84228506 18.31538327 29.1120703 17.34433068 25 16 C25 15.34 25 14.68 25 14 C24.05125 13.855625 23.1025 13.71125 22.125 13.5625 C19 13 19 13 17 12 C17 11.34 17 10.68 17 10 C16.01 10.33 15.02 10.66 14 11 C14 10.34 14 9.68 14 9 C11.2633126 7.87312872 8.59790896 6.8840122 5.75 6.0625 C4.8425 5.711875 3.935 5.36125 3 5 C2.67 4.01 2.34 3.02 2 2 C1.34 2 0.68 2 0 2 C0 1.34 0 0.68 0 0 Z " fill="#63AADC" transform="translate(414,247)"/>
<path d="M0 0 C1 3 1 3 0.15136719 5.30908203 C-0.29561523 6.19966309 -0.74259766 7.09024414 -1.203125 8.0078125 C-1.68910156 8.99523437 -2.17507813 9.98265625 -2.67578125 11 C-3.19527344 12.03125 -3.71476562 13.0625 -4.25 14.125 C-7.68317928 20.99135856 -10.76743181 27.64475822 -13 35 C-13.33 35 -13.66 35 -14 35 C-13.84534855 26.33951896 -10.37140525 19.54791337 -6.796875 11.84082031 C-5.87110076 9.78048276 -5.87110076 9.78048276 -4.91015625 6.66015625 C-3.85605647 3.57928952 -2.43586625 2.11108408 0 0 Z " fill="#52C0E3" transform="translate(356,363)"/>
<path d="M0 0 C7.94510923 0.76395281 15.45155134 2.80659515 23.15625 4.828125 C28.78069142 6.27684476 34.21610156 7.44385592 40 8 C40 8.33 40 8.66 40 9 C33.8616298 9.23508652 28.30834979 8.8618221 22.32421875 7.4375 C19.83460354 6.96886655 17.5274972 6.92842486 15 7 C14.67 6.34 14.34 5.68 14 5 C12.04183114 4.42321978 10.0566772 3.93630036 8.0625 3.5 C2.21832061 2.21832061 2.21832061 2.21832061 0 0 Z " fill="#5AB7DF" transform="translate(448,265)"/>
<path d="M0 0 C3.18706942 1.43561686 5.62169105 3.20266329 8.25 5.5 C8.95640625 6.1084375 9.6628125 6.716875 10.390625 7.34375 C12 9 12 9 12 11 C12.99 11.33 13.98 11.66 15 12 C15 12.66 15 13.32 15 14 C15.66 14 16.32 14 17 14 C17.268125 14.598125 17.53625 15.19625 17.8125 15.8125 C18.861285 17.99149215 18.861285 17.99149215 20.375 19.375 C22.65544887 21.65544887 24.25825669 24.29729486 26 27 C25.67 27.66 25.34 28.32 25 29 C24.45025513 28.31393677 24.45025513 28.31393677 23.8894043 27.61401367 C16.92992415 18.96107088 9.94346136 10.58855669 1.9140625 2.90625 C1.28242188 2.2771875 0.65078125 1.648125 0 1 C0 0.67 0 0.34 0 0 Z " fill="#7297D4" transform="translate(273,322)"/>
<path d="M0 0 C3.13677019 1.5683851 3.54315474 4.73652927 4.6875 7.875 C7.02023402 14.02794461 9.84258966 19.37993196 13.58203125 24.828125 C15 27 15 27 16 30 C13 29 13 29 12 27.125 C11.67 26.42375 11.34 25.7225 11 25 C10.52127441 24.53505127 10.04254883 24.07010254 9.54931641 23.59106445 C7.92192962 21.91982593 7.1452998 20.54179701 6.2109375 18.41796875 C5.90929687 17.73283203 5.60765625 17.04769531 5.296875 16.34179688 C4.99265625 15.63087891 4.6884375 14.91996094 4.375 14.1875 C4.06304687 13.48818359 3.75109375 12.78886719 3.4296875 12.06835938 C1.68587275 8.05082066 0.51011185 4.39109799 0 0 Z " fill="#8290D3" transform="translate(187,366)"/>
<path d="M0 0 C7.49946928 -0.23476599 14.7996806 0.04306477 22.25 0.875 C23.37619751 0.99270752 23.37619751 0.99270752 24.52514648 1.11279297 C26.36068036 1.33352307 28.18319476 1.65776459 30 2 C30.33 2.66 30.66 3.32 31 4 C23.80540143 4.21120322 16.97912425 3.60752499 9.875 2.5 C8.91851562 2.35691406 7.96203125 2.21382813 6.9765625 2.06640625 C4.64997784 1.71741855 2.32460844 1.36187667 0 1 C0 0.67 0 0.34 0 0 Z " fill="#D0F6FC" transform="translate(476,271)"/>
<path d="M0 0 C0.99 0.33 1.98 0.66 3 1 C3 1.66 3 2.32 3 3 C3.66 3 4.32 3 5 3 C5.26554687 3.56589844 5.53109375 4.13179688 5.8046875 4.71484375 C6.15789062 5.44832031 6.51109375 6.18179687 6.875 6.9375 C7.22304688 7.66839844 7.57109375 8.39929688 7.9296875 9.15234375 C8.8684977 11.16332459 8.8684977 11.16332459 11 12 C12.04718798 14.31254012 13.04346365 16.6485148 14 19 C14.61875 20.0828125 14.61875 20.0828125 15.25 21.1875 C16.20863398 23.50419879 15.68264753 24.64486602 15 27 C14.12988281 25.33324219 14.12988281 25.33324219 13.2421875 23.6328125 C9.04025899 15.6189737 4.80750337 7.67315244 0 0 Z " fill="#64AFDC" transform="translate(299,352)"/>
<path d="M0 0 C0.33 0 0.66 0 1 0 C1.26743699 5.21502137 0.44060194 10.00521226 -1 15 C-1.33 15.33 -1.66 15.66 -2 16 C-2.52928076 18.31282351 -2.96333715 20.63721913 -3.40234375 22.96875 C-3.59957031 23.6390625 -3.79679687 24.309375 -4 25 C-4.66 25.33 -5.32 25.66 -6 26 C-5.50596529 16.94269693 -2.67773223 8.60629066 0 0 Z " fill="#D0F9FD" transform="translate(342,398)"/>
<path d="M0 0 C0.33 0 0.66 0 1 0 C1.89527771 4.10001557 2.76271727 8.20542939 3.625 12.3125 C3.88023437 13.47974609 4.13546875 14.64699219 4.3984375 15.84960938 C4.63046875 16.96787109 4.8625 18.08613281 5.1015625 19.23828125 C5.32150879 20.26993408 5.54145508 21.30158691 5.76806641 22.36450195 C6 25 6 25 4 28 C1.53266459 18.60429865 -0.76251512 9.80679167 0 0 Z " fill="#B467CD" transform="translate(335,124)"/>
<path d="M0 0 C1.79398267 0.95399078 3.58511655 1.91334026 5.375 2.875 C6.37273437 3.40867187 7.37046875 3.94234375 8.3984375 4.4921875 C11 6 11 6 13 8 C12.48050781 8.25394531 11.96101562 8.50789063 11.42578125 8.76953125 C7.51334292 10.70043889 3.7041846 12.68488463 0 15 C0.8125 12.5625 0.8125 12.5625 2 10 C2.99 9.67 3.98 9.34 5 9 C4.60401298 6.12909413 4.2676157 5.21084873 1.9375 3.375 C1.298125 2.92125 0.65875 2.4675 0 2 C0 1.34 0 0.68 0 0 Z " fill="#9D67C6" transform="translate(117,333)"/>
<path d="M0 0 C0.33 0 0.66 0 1 0 C0.67 8.25 0.34 16.5 0 25 C-1.32 25.33 -2.64 25.66 -4 26 C-4.25210084 20.45378151 -4.25210084 20.45378151 -3.0625 18.3125 C-1.50753905 14.92817324 -1.2697752 11.41299608 -0.875 7.75 C-0.78863281 7.00492187 -0.70226562 6.25984375 -0.61328125 5.4921875 C-0.40213133 3.66222154 -0.20015455 1.83120121 0 0 Z " fill="#C2F2F8" transform="translate(335,426)"/>
<path d="M0 0 C5.23719708 7.85579563 5.28902626 14.82151182 4 24 C2.3226387 21.02730987 1.67146103 18.62485146 1.3671875 15.234375 C1.28339844 14.34492188 1.19960938 13.45546875 1.11328125 12.5390625 C1.03464844 11.61867188 0.95601563 10.69828125 0.875 9.75 C0.78863281 8.81414062 0.70226562 7.87828125 0.61328125 6.9140625 C0.40167692 4.60992647 0.19751323 2.30537956 0 0 Z " fill="#56CDE3" transform="translate(329,426)"/>
<path d="M0 0 C0.28875 0.58007812 0.5775 1.16015625 0.875 1.7578125 C1.57487953 3.15271129 2.28194156 4.5440591 3 5.9296875 C5.03135622 9.88131015 6.73627407 13.72277379 8 18 C8.226875 18.70125 8.45375 19.4025 8.6875 20.125 C9.05841958 22.35051747 8.59450506 23.84547792 8 26 C6.6494208 22.79866035 5.32271334 19.58794219 4 16.375 C3.6184375 15.47136719 3.236875 14.56773437 2.84375 13.63671875 C0.92559024 8.94407791 -0.54987109 5.17222498 0 0 Z " fill="#52BBE1" transform="translate(315,375)"/>
<path d="M0 0 C3.37462715 0.54723683 5.08235 1.0549 8 3 C8 3.66 8 4.32 8 5 C8.99 5 9.98 5 11 5 C12.71108689 6.62102968 14.37253306 8.29503463 16 10 C17.64864545 11.35555293 19.31003995 12.69631653 21 14 C20.67 14.66 20.34 15.32 20 16 C17.22635788 13.89951549 14.45659126 11.79397928 11.6875 9.6875 C10.90181641 9.09259766 10.11613281 8.49769531 9.30664062 7.88476562 C8.54931641 7.30791016 7.79199219 6.73105469 7.01171875 6.13671875 C6.31522217 5.60780029 5.61872559 5.07888184 4.90112305 4.53393555 C3.14170426 3.11433516 1.5625974 1.63100112 0 0 Z " fill="#818ECF" transform="translate(252,306)"/>
<path d="M0 0 C3.94120709 0.56302958 6.7508723 1.6791945 10 4 C10 4.66 10 5.32 10 6 C10.99 6 11.98 6 13 6 C14.82421875 7.75 14.82421875 7.75 16.6875 10 C17.31011719 10.7425 17.93273437 11.485 18.57421875 12.25 C19.04472656 12.8275 19.51523438 13.405 20 14 C19.67 14.66 19.34 15.32 19 16 C18.63390625 15.5875 18.2678125 15.175 17.890625 14.75 C13.24878838 9.79870761 8.09611363 6.2353213 2.37890625 2.6015625 C1.59386719 2.07304687 0.80882812 1.54453125 0 1 C0 0.67 0 0.34 0 0 Z " fill="#769FD5" transform="translate(144,433)"/>
<path d="M0 0 C-3.73548742 3.73548742 -9.15182472 3.92917173 -14.26171875 4.125 C-17.17728339 4.125 -20.08588417 4.0887548 -23 4 C-16.25933599 0.17117414 -7.62958521 -0.34679933 0 0 Z " fill="#A45DC6" transform="translate(195,271)"/>
<path d="M0 0 C0.98351763 3.08907651 0.96409099 5.01001837 0.125 8.125 C-1.08889551 13.05439999 -1.59913412 17.94698007 -2 23 C-3.84586777 19.85030499 -4.27170838 17.51115326 -4.25 13.875 C-4.25773438 12.57175781 -4.25773438 12.57175781 -4.265625 11.2421875 C-4 9 -4 9 -2 7 C-1.28072705 4.68234271 -0.6090107 2.34904126 0 0 Z " fill="#63B9D9" transform="translate(188,477)"/>
<path d="M0 0 C1.32 0 2.64 0 4 0 C4 0.66 4 1.32 4 2 C4.61488281 2.06058594 5.22976562 2.12117188 5.86328125 2.18359375 C6.67152344 2.26738281 7.47976562 2.35117187 8.3125 2.4375 C9.11300781 2.51871094 9.91351563 2.59992188 10.73828125 2.68359375 C13 3 13 3 16 4 C16 4.99 16 5.98 16 7 C10.63904723 5.41078475 5.29156027 3.81027062 0 2 C0 1.34 0 0.68 0 0 Z " fill="#A06DCF" transform="translate(200,281)"/>
<path d="M0 0 C2.73256723 3.27908068 5.29423295 6.68001068 7.8125 10.125 C8.43769531 10.97320312 9.06289063 11.82140625 9.70703125 12.6953125 C10.13371094 13.45585937 10.56039063 14.21640625 11 15 C10.67 15.99 10.34 16.98 10 18 C7.06277008 15.39716241 5.28367414 12.37207149 3.3125 9 C2.68988281 7.948125 2.06726563 6.89625 1.42578125 5.8125 C0 3 0 3 0 0 Z " fill="#9477CE" transform="translate(357,187)"/>
<path d="M0 0 C0 0.66 0 1.32 0 2 C-1.65 2.66 -3.3 3.32 -5 4 C-5 4.33 -5 4.66 -5 5 C-8.96 4.67 -12.92 4.34 -17 4 C-17 3.67 -17 3.34 -17 3 C-14.54212344 2.49766027 -12.08374976 1.99803143 -9.625 1.5 C-8.57699219 1.28537109 -8.57699219 1.28537109 -7.5078125 1.06640625 C-2.2265625 0 -2.2265625 0 0 0 Z " fill="#8994CA" transform="translate(128,421)"/>
<path d="M0 0 C3.79049707 1.42749981 7.27122456 3.16236542 10.8125 5.125 C12.27623047 5.93324219 12.27623047 5.93324219 13.76953125 6.7578125 C14.50558594 7.16773438 15.24164063 7.57765625 16 8 C13.67120172 8.81379984 12.49693594 9.21266721 10.18359375 8.22265625 C9.60738281 7.83980469 9.03117187 7.45695313 8.4375 7.0625 C5.86819282 5.37442512 5.21609341 5 2 5 C2 4.01 2 3.02 2 2 C1.34 2 0.68 2 0 2 C0 1.34 0 0.68 0 0 Z " fill="#72A1D8" transform="translate(414,247)"/>
<path d="M0 0 C3.63 0.33 7.26 0.66 11 1 C11 1.33 11 1.66 11 2 C8.93827387 2.33808686 6.8755797 2.67027361 4.8125 3 C3.08966797 3.2784375 3.08966797 3.2784375 1.33203125 3.5625 C-1.50415393 3.93489477 -4.14719564 4.08596021 -7 4 C-4.64046906 1.64046906 -3.22104383 1.50858587 0 1 C0 0.67 0 0.34 0 0 Z " fill="#6EB5D5" transform="translate(249,423)"/>
<path d="M0 0 C3.3 1.65 6.6 3.3 10 5 C10 5.66 10 6.32 10 7 C11.32 7.33 12.64 7.66 14 8 C14 8.66 14 9.32 14 10 C10.30123909 8.62712658 7.0485524 6.93644547 3.6875 4.875 C2.36298828 4.06675781 2.36298828 4.06675781 1.01171875 3.2421875 C0.34785156 2.83226562 -0.31601563 2.42234375 -1 2 C-0.67 1.34 -0.34 0.68 0 0 Z " fill="#9183D3" transform="translate(238,296)"/>
<path d="M0 0 C0.90550946 3.01150495 1.06723758 5.43770987 0.75 8.5625 C0.68296875 9.32691406 0.6159375 10.09132813 0.546875 10.87890625 C-0.09694852 13.37602176 -1.05228884 14.36120002 -3 16 C-2.52013969 10.43109483 -1.70084819 5.32932432 0 0 Z " fill="#C7F0F9" transform="translate(189,478)"/>
<path d="M0 0 C4.13621084 3.3810038 7.81316569 6.66590534 11 11 C8.03 10.505 8.03 10.505 5 10 C4.9175 9.4225 4.835 8.845 4.75 8.25 C3.7973369 5.39201069 2.13946926 4.07045412 0 2 C0 1.34 0 0.68 0 0 Z " fill="#719DD9" transform="translate(203,396)"/>
<path d="M0 0 C0.33 0.99 0.66 1.98 1 3 C-0.1796875 4.75390625 -0.1796875 4.75390625 -1.875 6.5625 C-4.22310453 9.08137361 -4.22310453 9.08137361 -6 12 C-6.99 11.67 -7.98 11.34 -9 11 C-6.03 7.37 -3.06 3.74 0 0 Z " fill="#D9F6FC" transform="translate(207,448)"/>
<path d="M0 0 C1.66666667 1.66666667 3.33333333 3.33333333 5 5 C5.8971875 5.804375 5.8971875 5.804375 6.8125 6.625 C8 8 8 8 8 11 C7.34 11 6.68 11 6 11 C4.98133771 9.34467377 3.98189187 7.67739862 3 6 C2.34 5.67 1.68 5.34 1 5 C0.375 2.4375 0.375 2.4375 0 0 Z " fill="#8C81D1" transform="translate(368,204)"/>
<path d="M0 0 C0.66 0.33 1.32 0.66 2 1 C-1.16952847 4.26008643 -4.39937989 7.22237877 -8 10 C-6.44303593 6.17836093 -3.96591316 3.81381505 -1 1 C-0.67 0.67 -0.34 0.34 0 0 Z " fill="#F6E7FB" transform="translate(123,343)"/>
<path d="M0 0 C2.5999298 2.51027705 4.99091227 4.9863684 7 8 C7 8.66 7 9.32 7 10 C4 9 4 9 3 7.125 C2.505 6.073125 2.505 6.073125 2 5 C0.4587688 3.29078411 0.4587688 3.29078411 -1 2 C-0.67 1.34 -0.34 0.68 0 0 Z " fill="#7D9AD6" transform="translate(196,386)"/>
<path d="M0 0 C3.37462715 0.54723683 5.08235 1.0549 8 3 C8 3.66 8 4.32 8 5 C8.99 5.33 9.98 5.66 11 6 C10.01 6.33 9.02 6.66 8 7 C5.95703125 5.8203125 5.95703125 5.8203125 3.8125 4.125 C3.09707031 3.57070313 2.38164062 3.01640625 1.64453125 2.4453125 C1.10183594 1.96835937 0.55914062 1.49140625 0 1 C0 0.67 0 0.34 0 0 Z " fill="#8989D4" transform="translate(252,306)"/>
<path d="M0 0 C-1.39332574 3.36720387 -2.9789286 4.9859524 -6 7 C-6 4 -6 4 -4 1 C-2 0 -2 0 0 0 Z " fill="#65BCE3" transform="translate(385,328)"/>
<path d="M0 0 C0.33 0.99 0.66 1.98 1 3 C-1.3125 6.1875 -1.3125 6.1875 -4 9 C-4.66 9 -5.32 9 -6 9 C-4.47291037 5.56404834 -2.40072955 2.88087546 0 0 Z " fill="#DBF7FD" transform="translate(376,338)"/>
<path d="M0 0 C4.7517398 0.43197635 6.92000054 1.32769295 10 5 C6.05140217 4.4359146 3.29120954 3.2568294 0 1 C0 0.67 0 0.34 0 0 Z " fill="#9173CD" transform="translate(228,292)"/>
<path d="M0 0 C0 0.66 0 1.32 0 2 C-5.45769231 5.10096154 -5.45769231 5.10096154 -8.203125 4.58984375 C-8.79609375 4.39519531 -9.3890625 4.20054687 -10 4 C-8.71086513 3.32845067 -7.41859796 2.66291141 -6.125 2 C-5.40570313 1.62875 -4.68640625 1.2575 -3.9453125 0.875 C-2 0 -2 0 0 0 Z " fill="#DAF7FC" transform="translate(442,291)"/>
<path d="M0 0 C-1 3 -1 3 -4 5 C-6.1875 4.625 -6.1875 4.625 -8 4 C-2.25 0 -2.25 0 0 0 Z " fill="#DDF7FD" transform="translate(224,436)"/>
<path d="M0 0 C0.33 0 0.66 0 1 0 C0.25 6.625 0.25 6.625 -2 10 C-2.1953125 3.9453125 -2.1953125 3.9453125 -2 2 C-1.34 1.34 -0.68 0.68 0 0 Z " fill="#B050D0" transform="translate(326,144)"/>
</svg>
